<svg width="188" height="43" viewBox="0 0 188 43" fill="none" xmlns="http://www.w3.org/2000/svg">
<path d="M12.506 30.998C11.05 30.998 9.622 30.83 8.222 30.494C6.85 30.186 5.59 29.682 4.442 28.982C3.322 28.282 2.426 27.372 1.754 26.252C1.082 25.16 0.746 23.816 0.746 22.22C0.746 21.548 0.9 20.736 1.208 19.784C1.544 18.832 2.034 17.88 2.678 16.928C3.35 15.976 4.204 15.136 5.24 14.408C6.276 13.68 7.522 13.176 8.978 12.896C9.062 12.868 9.174 12.854 9.314 12.854C9.622 12.854 9.846 12.924 9.986 13.064C10.126 13.204 10.196 13.372 10.196 13.568C10.196 14.016 9.916 14.31 9.356 14.45C8.18 14.702 7.144 15.15 6.248 15.794C5.38 16.41 4.652 17.124 4.064 17.936C3.504 18.72 3.07 19.504 2.762 20.288C2.482 21.044 2.342 21.688 2.342 22.22C2.342 23.844 2.804 25.188 3.728 26.252C4.652 27.316 5.884 28.1 7.424 28.604C8.964 29.136 10.658 29.402 12.506 29.402C14.354 29.402 16.118 29.192 17.798 28.772C19.478 28.352 20.962 27.75 22.25 26.966C23.566 26.182 24.602 25.258 25.358 24.194C26.114 23.13 26.492 21.954 26.492 20.666C26.492 19.49 26.142 18.51 25.442 17.726C24.77 16.914 23.86 16.2 22.712 15.584C21.592 14.968 20.36 14.352 19.016 13.736C16.916 12.784 15.418 11.79 14.522 10.754C13.654 9.718 13.22 8.71 13.22 7.73C13.22 6.554 13.696 5.448 14.648 4.412C15.6 3.376 16.874 2.536 18.47 1.892C20.094 1.248 21.872 0.926 23.804 0.926C26.464 0.926 28.368 1.304 29.516 2.06C30.664 2.788 31.238 3.642 31.238 4.622C31.238 5.658 30.664 6.666 29.516 7.646C28.368 8.598 26.842 9.2 24.938 9.452H24.77C24.518 9.452 24.308 9.368 24.14 9.2C24 9.032 23.93 8.85 23.93 8.654C23.93 8.346 24.112 8.15 24.476 8.066C25.876 7.87 27.052 7.45 28.004 6.806C28.984 6.134 29.474 5.448 29.474 4.748C29.474 4.16 29.04 3.642 28.172 3.194C27.304 2.746 25.848 2.522 23.804 2.522C22.012 2.522 20.458 2.788 19.142 3.32C17.826 3.852 16.804 4.51 16.076 5.294C15.376 6.05 15.026 6.82 15.026 7.604C15.026 8.5 15.334 9.27 15.95 9.914C16.566 10.558 17.294 11.104 18.134 11.552C18.974 11.972 19.716 12.322 20.36 12.602C21.592 13.134 22.796 13.736 23.972 14.408C25.148 15.08 26.128 15.906 26.912 16.886C27.696 17.866 28.088 19.126 28.088 20.666C28.088 22.346 27.64 23.83 26.744 25.118C25.848 26.378 24.644 27.442 23.132 28.31C21.62 29.206 19.94 29.878 18.092 30.326C16.272 30.774 14.41 30.998 12.506 30.998ZM34.5009 26.714C33.5489 26.714 32.8769 26.448 32.4849 25.916C32.0929 25.356 31.8969 24.67 31.8969 23.858C31.8969 23.186 31.9949 22.458 32.1909 21.674C32.4149 20.862 32.6949 20.064 33.0309 19.28C33.0589 18.188 33.3529 17.11 33.9129 16.046C34.5009 14.982 35.2849 14.1 36.2649 13.4C37.2729 12.7 38.4489 12.35 39.7929 12.35C41.1089 12.35 42.0189 12.728 42.5229 13.484C43.0549 14.24 43.3209 15.136 43.3209 16.172C43.3209 16.788 43.2509 17.418 43.1109 18.062C42.9709 18.678 42.7889 19.266 42.5649 19.826C42.3409 20.386 42.0609 20.96 41.7249 21.548C41.3889 22.108 41.0109 22.668 40.5909 23.228C41.4309 23.088 42.1589 22.822 42.7749 22.43C43.4189 22.01 44.0629 21.436 44.7069 20.708C45.3509 19.98 46.1069 19.056 46.9749 17.936C47.1429 17.74 47.3249 17.642 47.5209 17.642C47.7449 17.642 47.9269 17.712 48.0669 17.852C48.2349 17.992 48.3189 18.174 48.3189 18.398C48.3189 18.566 48.2629 18.72 48.1509 18.86C47.3389 19.98 46.5129 20.988 45.6729 21.884C44.8609 22.78 43.9369 23.48 42.9009 23.984C41.8649 24.488 40.6189 24.74 39.1629 24.74C38.4909 25.328 37.7629 25.804 36.9789 26.168C36.1949 26.532 35.3689 26.714 34.5009 26.714ZM36.9369 15.836C36.6009 16.088 36.1949 16.592 35.7189 17.348C35.2429 18.104 34.8089 18.93 34.4169 19.826C34.4729 20.694 34.8229 21.478 35.4669 22.178C36.1389 22.85 37.1609 23.228 38.5329 23.312C39.5409 22.332 40.3529 21.184 40.9689 19.868C41.5849 18.524 41.8929 17.32 41.8929 16.256C41.8929 15.528 41.7249 14.94 41.3889 14.492C41.0529 14.044 40.5209 13.82 39.7929 13.82C39.2889 13.82 38.7989 13.904 38.3229 14.072C37.8469 14.24 37.4129 14.464 37.0209 14.744C37.1609 14.884 37.2309 15.052 37.2309 15.248C37.2309 15.472 37.1329 15.668 36.9369 15.836ZM33.3669 23.774C33.3669 24.222 33.4509 24.586 33.6189 24.866C33.8149 25.118 34.1089 25.244 34.5009 25.244C35.3129 25.244 36.1389 24.992 36.9789 24.488C36.1669 24.292 35.4809 23.984 34.9209 23.564C34.3609 23.116 33.9269 22.612 33.6189 22.052C33.4509 22.724 33.3669 23.298 33.3669 23.774ZM48.629 26.294C47.453 26.294 46.557 26 45.941 25.412C45.353 24.824 45.059 24.068 45.059 23.144C45.059 22.08 45.269 21.072 45.689 20.12C46.137 19.168 46.641 18.286 47.201 17.474C48.013 16.298 48.979 15.304 50.099 14.492C51.247 13.652 52.437 13.232 53.669 13.232C54.481 13.232 55.041 13.428 55.349 13.82C55.657 14.184 55.811 14.646 55.811 15.206C55.811 15.794 55.685 16.41 55.433 17.054C55.181 17.67 54.901 18.16 54.593 18.524C54.397 18.748 54.187 18.86 53.963 18.86C53.515 18.86 53.291 18.664 53.291 18.272C53.291 18.076 53.375 17.894 53.543 17.726C53.683 17.586 53.851 17.264 54.047 16.76C54.271 16.228 54.383 15.766 54.383 15.374C54.383 14.982 54.257 14.772 54.005 14.744C53.921 14.716 53.809 14.702 53.669 14.702C53.109 14.702 52.479 14.926 51.779 15.374C51.079 15.794 50.407 16.354 49.763 17.054C49.119 17.754 48.573 18.496 48.125 19.28C47.761 19.896 47.467 20.554 47.243 21.254C47.019 21.954 46.907 22.556 46.907 23.06C46.907 23.592 47.061 24.012 47.369 24.32C47.705 24.628 48.181 24.782 48.797 24.782C49.777 24.782 50.799 24.516 51.863 23.984C52.955 23.452 53.837 22.906 54.509 22.346C55.069 21.87 55.587 21.38 56.063 20.876C56.539 20.344 56.987 19.854 57.407 19.406C57.519 19.266 57.659 19.196 57.827 19.196C57.967 19.196 58.093 19.28 58.205 19.448C58.345 19.588 58.415 19.77 58.415 19.994C58.415 20.246 58.345 20.456 58.205 20.624C57.757 21.212 57.169 21.87 56.441 22.598C55.713 23.298 55.069 23.858 54.509 24.278C53.725 24.838 52.787 25.314 51.695 25.706C50.603 26.098 49.581 26.294 48.629 26.294ZM65.4073 12.938C65.0713 12.938 64.7633 12.826 64.4833 12.602C64.2313 12.35 64.1053 12.042 64.1053 11.678C64.1053 11.286 64.2313 10.964 64.4833 10.712C64.7353 10.46 65.0433 10.334 65.4073 10.334C65.7993 10.334 66.1213 10.46 66.3733 10.712C66.6253 10.964 66.7513 11.286 66.7513 11.678C66.7513 12.042 66.6113 12.35 66.3313 12.602C66.0793 12.826 65.7713 12.938 65.4073 12.938ZM59.1913 25.538C58.8273 25.538 58.5333 25.44 58.3093 25.244C58.0853 25.02 57.9733 24.67 57.9733 24.194C57.9733 23.606 58.1133 22.892 58.3933 22.052C58.6733 21.184 59.0373 20.302 59.4853 19.406C59.9333 18.482 60.4093 17.642 60.9133 16.886C61.4453 16.102 61.9493 15.486 62.4253 15.038C62.6213 14.842 62.8593 14.744 63.1393 14.744C63.3633 14.744 63.5593 14.8 63.7273 14.912C63.8953 15.024 63.9793 15.164 63.9793 15.332C63.9793 15.472 63.9093 15.612 63.7693 15.752C63.5733 15.948 63.3213 16.27 63.0133 16.718C62.7333 17.138 62.4533 17.586 62.1733 18.062C61.8933 18.51 61.6833 18.888 61.5433 19.196C61.2913 19.728 61.0113 20.33 60.7033 21.002C60.3953 21.674 60.1713 22.22 60.0313 22.64C59.9473 22.92 59.9053 23.13 59.9053 23.27C59.9053 23.578 60.0173 23.732 60.2413 23.732C60.4373 23.732 60.6613 23.648 60.9133 23.48C61.1653 23.284 61.3893 23.116 61.5853 22.976C62.2853 22.416 62.9293 21.828 63.5173 21.212C64.1333 20.568 64.6933 19.966 65.1973 19.406C65.3093 19.266 65.4493 19.196 65.6173 19.196C65.7573 19.196 65.8833 19.28 65.9953 19.448C66.1353 19.588 66.2053 19.77 66.2053 19.994C66.2053 20.246 66.1353 20.456 65.9953 20.624C65.5753 21.212 64.9873 21.87 64.2313 22.598C63.5033 23.298 62.8593 23.858 62.2993 24.278C61.9353 24.558 61.4453 24.838 60.8293 25.118C60.2413 25.398 59.6953 25.538 59.1913 25.538ZM65.8933 26.21C65.1093 26.21 64.5213 25.986 64.1293 25.538C63.7653 25.062 63.5833 24.474 63.5833 23.774C63.5833 22.99 63.8073 22.08 64.2553 21.044C64.7313 19.98 65.3473 18.888 66.1033 17.768C66.8593 16.648 67.6853 15.612 68.5813 14.66C69.5053 13.68 70.4293 12.896 71.3533 12.308C72.2773 11.692 73.1313 11.384 73.9153 11.384C74.4473 11.384 74.9653 11.468 75.4693 11.636C75.9733 11.776 76.3793 12.07 76.6873 12.518C77.0233 12.966 77.1913 13.624 77.1913 14.492C77.1913 14.8 77.1073 15.024 76.9393 15.164C76.7713 15.304 76.6173 15.374 76.4773 15.374C76.1693 15.374 76.0153 15.262 76.0153 15.038C75.8753 14.142 75.5813 13.554 75.1333 13.274C74.7133 12.994 74.3073 12.854 73.9153 12.854C73.3553 12.854 72.6973 13.134 71.9413 13.694C71.1853 14.254 70.4153 14.968 69.6313 15.836C68.8473 16.704 68.1053 17.642 67.4053 18.65C66.7333 19.63 66.1873 20.582 65.7673 21.506C65.3473 22.402 65.1373 23.144 65.1373 23.732C65.1373 24.012 65.1793 24.264 65.2633 24.488C65.3753 24.712 65.5433 24.824 65.7673 24.824C66.1873 24.824 66.7333 24.6 67.4053 24.152C68.0773 23.704 68.7913 23.13 69.5473 22.43C70.3313 21.702 71.1013 20.946 71.8573 20.162C72.6133 19.378 73.2993 18.636 73.9153 17.936C74.5313 17.236 75.0073 16.676 75.3433 16.256C75.5113 16.004 75.7213 15.878 75.9733 15.878C76.1693 15.878 76.3513 15.948 76.5193 16.088C76.6873 16.228 76.7713 16.41 76.7713 16.634C76.7713 16.746 76.7293 16.872 76.6453 17.012C76.4493 17.32 76.2113 17.754 75.9313 18.314C75.6793 18.874 75.4133 19.476 75.1333 20.12C74.8813 20.764 74.6573 21.366 74.4613 21.926C74.2933 22.458 74.2093 22.864 74.2093 23.144C74.2093 23.424 74.3073 23.564 74.5033 23.564C74.6433 23.564 74.8113 23.494 75.0073 23.354C75.2313 23.214 75.4273 23.088 75.5953 22.976C76.2673 22.416 76.9113 21.828 77.5273 21.212C78.1433 20.568 78.7033 19.966 79.2073 19.406C79.3193 19.266 79.4593 19.196 79.6273 19.196C79.7673 19.196 79.8933 19.28 80.0053 19.448C80.1453 19.588 80.2153 19.77 80.2153 19.994C80.2153 20.246 80.1453 20.456 80.0053 20.624C79.5573 21.212 78.9693 21.87 78.2413 22.598C77.5133 23.298 76.8693 23.858 76.3093 24.278C75.9453 24.53 75.5113 24.782 75.0073 25.034C74.5313 25.258 74.0693 25.37 73.6213 25.37C73.2853 25.37 73.0053 25.272 72.7812 25.076C72.5573 24.852 72.4453 24.474 72.4453 23.942C72.4453 23.522 72.5153 23.046 72.6553 22.514C72.7953 21.982 72.9633 21.436 73.1593 20.876C72.3753 21.716 71.5353 22.542 70.6393 23.354C69.7433 24.166 68.8753 24.852 68.0353 25.412C67.2233 25.944 66.5093 26.21 65.8933 26.21ZM81.0126 26.798C80.0046 26.798 79.3186 26.518 78.9546 25.958C78.5906 25.37 78.4086 24.684 78.4086 23.9C78.4086 23.172 78.4926 22.444 78.6606 21.716C78.8566 20.96 79.0386 20.33 79.2066 19.826C79.2346 19.714 79.2766 19.602 79.3326 19.49C79.2766 19.406 79.2486 19.294 79.2486 19.154C79.2486 18.678 79.4166 18.384 79.7526 18.272C80.2566 16.984 80.8446 15.682 81.5166 14.366C82.1886 13.022 82.8746 11.776 83.5746 10.628C84.2746 9.48 84.8906 8.514 85.4226 7.73C85.8426 7.142 86.3466 6.442 86.9346 5.63C87.5506 4.79 88.2366 3.964 88.9926 3.152C89.7766 2.34 90.6166 1.668 91.5126 1.136C92.4086 0.575999 93.3326 0.295998 94.2846 0.295998C95.0686 0.295998 95.6146 0.463998 95.9226 0.799999C96.2586 1.136 96.4266 1.584 96.4266 2.144C96.4266 2.676 96.3006 3.292 96.0486 3.992C95.7966 4.692 95.4606 5.42 95.0406 6.176C94.4526 7.24 93.6406 8.402 92.6046 9.662C91.5686 10.922 90.4206 12.168 89.1606 13.4C87.9006 14.632 86.5846 15.752 85.2126 16.76C83.8406 17.768 82.4966 18.58 81.1806 19.196C81.0126 19.728 80.7886 20.428 80.5086 21.296C80.2286 22.136 80.0886 22.906 80.0886 23.606C80.0886 24.082 80.1866 24.488 80.3826 24.824C80.5786 25.132 80.9426 25.286 81.4746 25.286C81.8666 25.286 82.3566 25.174 82.9446 24.95C83.5606 24.698 84.2606 24.32 85.0446 23.816C85.9406 23.228 86.7946 22.528 87.6066 21.716C88.4186 20.904 89.1466 20.106 89.7906 19.322C89.9306 19.154 90.0566 19.07 90.1686 19.07C90.3086 19.07 90.4346 19.168 90.5466 19.364C90.6866 19.532 90.7566 19.728 90.7566 19.952C90.7566 20.232 90.6866 20.456 90.5466 20.624C90.1266 21.212 89.5526 21.856 88.8246 22.556C88.1246 23.256 87.4946 23.816 86.9346 24.236C86.6546 24.432 86.3186 24.656 85.9266 24.908C85.5346 25.16 84.8906 25.524 83.9946 26C83.5466 26.224 83.0566 26.406 82.5246 26.546C82.0206 26.714 81.5166 26.798 81.0126 26.798ZM86.0526 9.83C85.2126 11.062 84.4566 12.308 83.7846 13.568C83.1126 14.828 82.5246 16.018 82.0206 17.138C83.5326 16.242 85.0446 15.122 86.5566 13.778C88.0686 12.406 89.4546 10.964 90.7146 9.452C91.9746 7.94 92.9826 6.512 93.7386 5.168C94.4106 3.992 94.7466 3.096 94.7466 2.48C94.7466 2.004 94.5226 1.766 94.0746 1.766C93.4026 1.766 92.6746 2.074 91.8906 2.69C91.1066 3.306 90.3366 4.076 89.5806 5C88.8246 5.896 88.1386 6.792 87.5226 7.688C86.9066 8.584 86.4166 9.298 86.0526 9.83ZM117.81 33.014C116.914 33.014 116.116 32.734 115.416 32.174C114.744 31.614 114.408 30.634 114.408 29.234C114.408 28.338 114.618 27.232 115.038 25.916C115.486 24.6 116.046 23.242 116.718 21.842C115.542 22.906 114.254 23.928 112.854 24.908C111.454 25.86 109.984 26.616 108.444 27.176C106.904 27.764 105.336 28.016 103.74 27.932C102.172 27.848 101.038 27.316 100.338 26.336C99.6658 25.356 99.3298 24.18 99.3298 22.808C99.3578 21.408 99.6378 19.966 100.17 18.482C100.73 16.97 101.444 15.514 102.312 14.114C103.18 12.714 104.062 11.482 104.958 10.418C102.942 9.522 101.332 8.444 100.128 7.184C99.5958 6.624 99.1898 6.036 98.9098 5.42C98.6578 4.804 98.5318 4.216 98.5318 3.656C98.5318 2.788 98.8258 2.046 99.4138 1.43C100.002 0.813998 100.884 0.505998 102.06 0.505998C102.984 0.505998 104.034 0.729998 105.21 1.178C105.574 1.29 105.756 1.5 105.756 1.808C105.756 1.976 105.686 2.13 105.546 2.27C105.434 2.41 105.28 2.48 105.084 2.48C104.916 2.48 104.79 2.452 104.706 2.396C103.726 2.032 102.886 1.85 102.186 1.85C101.486 1.85 100.954 2.018 100.59 2.354C100.254 2.662 100.086 3.054 100.086 3.53C100.086 4.37 100.576 5.336 101.556 6.428C102.536 7.52 104.02 8.458 106.008 9.242C107.436 7.758 109.046 6.4 110.838 5.168C112.63 3.936 114.576 2.956 116.676 2.228C118.776 1.5 120.988 1.136 123.312 1.136C123.536 1.136 123.746 1.136 123.942 1.136C124.166 1.136 124.376 1.15 124.572 1.178C126.98 1.318 128.758 1.878 129.906 2.858C131.082 3.81 131.67 4.888 131.67 6.092C131.67 7.296 131.082 8.5 129.906 9.704C128.73 10.88 127.022 11.72 124.782 12.224C124.418 12.308 124.026 12.392 123.606 12.476C123.914 12.588 124.068 12.826 124.068 13.19C124.068 13.358 124.026 13.526 123.942 13.694C123.774 13.89 123.466 14.268 123.018 14.828C122.598 15.388 121.982 16.158 121.17 17.138C121.03 17.278 120.904 17.432 120.792 17.6C119.98 18.86 119.196 20.232 118.44 21.716C117.712 23.172 117.11 24.586 116.634 25.958C116.158 27.302 115.92 28.408 115.92 29.276C115.92 30.144 116.102 30.746 116.466 31.082C116.858 31.446 117.32 31.628 117.852 31.628C118.496 31.628 119.154 31.446 119.826 31.082C120.526 30.718 121.072 30.312 121.464 29.864C121.632 29.668 121.814 29.57 122.01 29.57C122.206 29.57 122.374 29.64 122.514 29.78C122.682 29.92 122.766 30.088 122.766 30.284C122.766 30.452 122.71 30.606 122.598 30.746C122.038 31.418 121.31 31.964 120.414 32.384C119.546 32.804 118.678 33.014 117.81 33.014ZM107.688 9.83C108.472 10.026 109.48 10.25 110.712 10.502C111.972 10.726 113.344 10.922 114.828 11.09C116.34 11.258 117.852 11.342 119.364 11.342C121.212 11.342 122.892 11.174 124.404 10.838C126.392 10.362 127.834 9.718 128.73 8.906C129.654 8.094 130.116 7.254 130.116 6.386C130.116 5.49 129.626 4.678 128.646 3.95C127.666 3.222 126.266 2.802 124.446 2.69C124.222 2.662 123.998 2.648 123.774 2.648C123.55 2.648 123.326 2.648 123.102 2.648C120.078 2.648 117.236 3.32 114.576 4.664C111.916 6.008 109.578 7.716 107.562 9.788L107.688 9.83ZM100.842 22.808C100.842 25.244 102.004 26.462 104.328 26.462C105.812 26.462 107.282 26.14 108.738 25.496C110.222 24.852 111.636 24.026 112.98 23.018C114.324 21.982 115.556 20.904 116.676 19.784C117.824 18.664 118.804 17.614 119.616 16.634C120.148 15.794 120.666 15.038 121.17 14.366C121.702 13.666 122.192 13.106 122.64 12.686C122.696 12.63 122.738 12.588 122.766 12.56C121.674 12.7 120.456 12.77 119.112 12.77C117.012 12.77 114.814 12.616 112.518 12.308C110.222 11.972 108.206 11.524 106.47 10.964C105.546 12 104.72 13.092 103.992 14.24C103.012 15.808 102.242 17.348 101.682 18.86C101.122 20.344 100.842 21.66 100.842 22.808ZM125.09 27.008C124.866 27.008 124.656 26.924 124.46 26.756C124.264 26.616 124.166 26.448 124.166 26.252C124.166 26.196 124.166 26.14 124.166 26.084C124.194 26.028 124.222 25.972 124.25 25.916C124.81 24.712 125.342 23.676 125.846 22.808C126.35 21.94 126.756 21.198 127.064 20.582C127.624 19.518 128.016 18.636 128.24 17.936C128.492 17.236 128.618 16.592 128.618 16.004C128.618 15.808 128.59 15.626 128.534 15.458C128.506 15.29 128.492 15.108 128.492 14.912C128.492 14.52 128.604 14.212 128.828 13.988C129.08 13.764 129.346 13.652 129.626 13.652C130.018 13.652 130.27 13.876 130.382 14.324C130.466 14.66 130.508 15.038 130.508 15.458C130.508 15.626 130.494 15.808 130.466 16.004C130.466 16.2 130.452 16.396 130.424 16.592C130.816 16.06 131.18 15.584 131.516 15.164C131.852 14.744 132.146 14.394 132.398 14.114C132.93 13.554 133.518 13.092 134.162 12.728C134.834 12.364 135.45 12.182 136.01 12.182C136.57 12.182 137.032 12.392 137.396 12.812C137.76 13.232 137.942 13.946 137.942 14.954C137.942 15.654 137.872 16.396 137.732 17.18C137.592 17.964 137.41 18.762 137.186 19.574C138.054 18.622 138.936 17.81 139.832 17.138C140.728 16.466 141.54 15.92 142.268 15.5C143.332 14.912 144.102 14.618 144.578 14.618C145.11 14.618 145.376 14.926 145.376 15.542C145.376 15.794 145.334 16.116 145.25 16.508C145.166 16.9 145.012 17.348 144.788 17.852L143.108 21.968C142.996 22.276 142.884 22.584 142.772 22.892C142.688 23.2 142.646 23.466 142.646 23.69C142.646 24.082 142.814 24.278 143.15 24.278C143.43 24.278 143.85 24.138 144.41 23.858C145.054 23.494 145.67 23.032 146.258 22.472C146.846 21.884 147.336 21.38 147.728 20.96C147.756 20.932 147.882 20.792 148.106 20.54C148.358 20.288 148.596 20.036 148.82 19.784C149.072 19.532 149.212 19.406 149.24 19.406C149.352 19.266 149.492 19.196 149.66 19.196C149.8 19.196 149.926 19.28 150.038 19.448C150.178 19.588 150.248 19.77 150.248 19.994C150.248 20.246 150.178 20.456 150.038 20.624C149.59 21.212 149.002 21.856 148.274 22.556C147.574 23.256 146.944 23.83 146.384 24.278C145.796 24.726 145.138 25.16 144.41 25.58C143.682 26 143.024 26.21 142.436 26.21C141.932 26.21 141.526 26.084 141.218 25.832C140.91 25.552 140.784 25.02 140.84 24.236C140.896 23.788 141.05 23.214 141.302 22.514C141.554 21.786 141.834 21.03 142.142 20.246C142.478 19.462 142.786 18.72 143.066 18.02C143.346 17.32 143.542 16.76 143.654 16.34C142.618 16.928 141.428 17.74 140.084 18.776C138.74 19.784 137.41 21.128 136.094 22.808C135.954 23.172 135.8 23.536 135.632 23.9C135.492 24.236 135.338 24.586 135.17 24.95C135.058 25.23 134.834 25.37 134.498 25.37C134.274 25.37 134.078 25.272 133.91 25.076C133.742 24.88 133.714 24.642 133.826 24.362C134.582 22.654 135.184 21.002 135.632 19.406C136.08 17.81 136.304 16.368 136.304 15.08C136.304 14.156 136.066 13.694 135.59 13.694C135.31 13.694 134.974 13.834 134.582 14.114C134.218 14.394 133.854 14.73 133.49 15.122C133.042 15.598 132.398 16.34 131.558 17.348C130.746 18.328 129.92 19.378 129.08 20.498L128.912 20.834C128.548 21.59 128.128 22.388 127.652 23.228C127.176 24.04 126.672 25.048 126.14 26.252C126.028 26.532 125.874 26.728 125.678 26.84C125.482 26.952 125.286 27.008 125.09 27.008ZM157.282 12.938C156.946 12.938 156.638 12.826 156.358 12.602C156.106 12.35 155.98 12.042 155.98 11.678C155.98 11.286 156.106 10.964 156.358 10.712C156.61 10.46 156.918 10.334 157.282 10.334C157.674 10.334 157.996 10.46 158.248 10.712C158.5 10.964 158.626 11.286 158.626 11.678C158.626 12.042 158.486 12.35 158.206 12.602C157.954 12.826 157.646 12.938 157.282 12.938ZM151.066 25.538C150.702 25.538 150.408 25.44 150.184 25.244C149.96 25.02 149.848 24.67 149.848 24.194C149.848 23.606 149.988 22.892 150.268 22.052C150.548 21.184 150.912 20.302 151.36 19.406C151.808 18.482 152.284 17.642 152.788 16.886C153.32 16.102 153.824 15.486 154.3 15.038C154.496 14.842 154.734 14.744 155.014 14.744C155.238 14.744 155.434 14.8 155.602 14.912C155.77 15.024 155.854 15.164 155.854 15.332C155.854 15.472 155.784 15.612 155.644 15.752C155.448 15.948 155.196 16.27 154.888 16.718C154.608 17.138 154.328 17.586 154.048 18.062C153.768 18.51 153.558 18.888 153.418 19.196C153.166 19.728 152.886 20.33 152.578 21.002C152.27 21.674 152.046 22.22 151.906 22.64C151.822 22.92 151.78 23.13 151.78 23.27C151.78 23.578 151.892 23.732 152.116 23.732C152.312 23.732 152.536 23.648 152.788 23.48C153.04 23.284 153.264 23.116 153.46 22.976C154.16 22.416 154.804 21.828 155.392 21.212C156.008 20.568 156.568 19.966 157.072 19.406C157.184 19.266 157.324 19.196 157.492 19.196C157.632 19.196 157.758 19.28 157.87 19.448C158.01 19.588 158.08 19.77 158.08 19.994C158.08 20.246 158.01 20.456 157.87 20.624C157.45 21.212 156.862 21.87 156.106 22.598C155.378 23.298 154.734 23.858 154.174 24.278C153.81 24.558 153.32 24.838 152.704 25.118C152.116 25.398 151.57 25.538 151.066 25.538ZM158.398 25.706C157.614 25.706 157.026 25.482 156.634 25.034C156.27 24.558 156.088 23.97 156.088 23.27C156.088 22.486 156.312 21.576 156.76 20.54C157.236 19.476 157.852 18.384 158.608 17.264C159.364 16.144 160.19 15.108 161.086 14.156C162.01 13.176 162.934 12.392 163.858 11.804C164.782 11.188 165.636 10.88 166.42 10.88C168.604 10.88 169.696 11.874 169.696 13.862C169.696 14.226 169.612 14.492 169.444 14.66C169.276 14.8 169.108 14.87 168.94 14.87C168.716 14.87 168.576 14.758 168.52 14.534C168.408 13.638 168.128 13.05 167.68 12.77C167.232 12.49 166.812 12.35 166.42 12.35C165.86 12.35 165.202 12.63 164.446 13.19C163.69 13.75 162.92 14.464 162.136 15.332C161.352 16.2 160.61 17.138 159.91 18.146C159.238 19.126 158.692 20.078 158.272 21.002C157.852 21.898 157.642 22.64 157.642 23.228C157.642 23.508 157.684 23.76 157.768 23.984C157.88 24.208 158.048 24.32 158.272 24.32C158.692 24.32 159.238 24.096 159.91 23.648C160.582 23.2 161.31 22.626 162.094 21.926C162.878 21.226 163.648 20.484 164.404 19.7C165.188 18.916 165.874 18.174 166.462 17.474C167.078 16.774 167.54 16.2 167.848 15.752C167.988 15.528 168.17 15.416 168.394 15.416C168.842 15.416 169.066 15.682 169.066 16.214C169.066 16.27 169.052 16.34 169.024 16.424C169.024 16.48 169.01 16.55 168.982 16.634C168.702 17.698 168.282 18.958 167.722 20.414C167.19 21.87 166.588 23.382 165.916 24.95C166.168 24.978 166.434 25.034 166.714 25.118C167.078 25.202 167.26 25.426 167.26 25.79C167.26 25.986 167.162 26.182 166.966 26.378C166.798 26.574 166.574 26.63 166.294 26.546C166.098 26.49 165.902 26.448 165.706 26.42C165.538 26.392 165.398 26.378 165.286 26.378C164.446 28.198 163.578 29.948 162.682 31.628C161.786 33.336 160.946 34.778 160.162 35.954C159.462 36.962 158.678 37.928 157.81 38.852C156.942 39.804 156.018 40.574 155.038 41.162C154.058 41.75 153.064 42.044 152.056 42.044C150.936 42.044 150.068 41.764 149.452 41.204C148.836 40.644 148.528 39.902 148.528 38.978C148.528 38.138 148.752 37.2 149.2 36.164C149.62 35.128 150.208 34.092 150.964 33.056C151.888 31.796 153.036 30.564 154.408 29.36C155.808 28.156 157.348 27.148 159.028 26.336C160.708 25.552 162.458 25.09 164.278 24.95C164.726 23.914 165.146 22.934 165.538 22.01C165.93 21.058 166.266 20.19 166.546 19.406C164.81 21.394 163.214 22.948 161.758 24.068C160.33 25.16 159.21 25.706 158.398 25.706ZM150.082 38.81C150.082 39.314 150.236 39.734 150.544 40.07C150.852 40.406 151.398 40.574 152.182 40.574C153.134 40.574 154.114 40.154 155.122 39.314C156.13 38.502 157.124 37.41 158.104 36.038C159.112 34.666 160.078 33.154 161.002 31.502C161.926 29.85 162.78 28.17 163.564 26.462C162.024 26.686 160.54 27.162 159.112 27.89C157.684 28.646 156.368 29.542 155.164 30.578C153.988 31.642 152.994 32.748 152.182 33.896C151.958 34.204 151.678 34.638 151.342 35.198C151.006 35.786 150.712 36.388 150.46 37.004C150.208 37.648 150.082 38.25 150.082 38.81ZM173.626 26.714C172.674 26.714 172.002 26.448 171.61 25.916C171.218 25.356 171.022 24.67 171.022 23.858C171.022 23.186 171.12 22.458 171.316 21.674C171.54 20.862 171.82 20.064 172.156 19.28C172.184 18.188 172.478 17.11 173.038 16.046C173.626 14.982 174.41 14.1 175.39 13.4C176.398 12.7 177.574 12.35 178.918 12.35C180.234 12.35 181.144 12.728 181.648 13.484C182.18 14.24 182.446 15.136 182.446 16.172C182.446 16.788 182.376 17.418 182.236 18.062C182.096 18.678 181.914 19.266 181.69 19.826C181.466 20.386 181.186 20.96 180.85 21.548C180.514 22.108 180.136 22.668 179.716 23.228C180.556 23.088 181.284 22.822 181.9 22.43C182.544 22.01 183.188 21.436 183.832 20.708C184.476 19.98 185.232 19.056 186.1 17.936C186.268 17.74 186.45 17.642 186.646 17.642C186.87 17.642 187.052 17.712 187.192 17.852C187.36 17.992 187.444 18.174 187.444 18.398C187.444 18.566 187.388 18.72 187.276 18.86C186.464 19.98 185.638 20.988 184.798 21.884C183.986 22.78 183.062 23.48 182.026 23.984C180.99 24.488 179.744 24.74 178.288 24.74C177.616 25.328 176.888 25.804 176.104 26.168C175.32 26.532 174.494 26.714 173.626 26.714ZM176.062 15.836C175.726 16.088 175.32 16.592 174.844 17.348C174.368 18.104 173.934 18.93 173.542 19.826C173.598 20.694 173.948 21.478 174.592 22.178C175.264 22.85 176.286 23.228 177.658 23.312C178.666 22.332 179.478 21.184 180.094 19.868C180.71 18.524 181.018 17.32 181.018 16.256C181.018 15.528 180.85 14.94 180.514 14.492C180.178 14.044 179.646 13.82 178.918 13.82C178.414 13.82 177.924 13.904 177.448 14.072C176.972 14.24 176.538 14.464 176.146 14.744C176.286 14.884 176.356 15.052 176.356 15.248C176.356 15.472 176.258 15.668 176.062 15.836ZM172.492 23.774C172.492 24.222 172.576 24.586 172.744 24.866C172.94 25.118 173.234 25.244 173.626 25.244C174.438 25.244 175.264 24.992 176.104 24.488C175.292 24.292 174.606 23.984 174.046 23.564C173.486 23.116 173.052 22.612 172.744 22.052C172.576 22.724 172.492 23.298 172.492 23.774Z" fill="#EDF2F4"/>
</svg>
