<svg width="100%" height="100%" id="svg" viewBox="0 0 1440 600" xmlns="http://www.w3.org/2000/svg" class="transition duration-300 ease-in-out delay-150"><path d="M 0,600 C 0,600 0,300 0,300 C 44.64624491305956,244.60880503144654 89.29248982611912,189.21761006289307 147,198 C 204.70751017388088,206.78238993710693 275.4762856085831,279.7383647798742 339,305 C 402.5237143914169,330.2616352201258 458.8023677395486,307.82893081761006 508,267 C 557.1976322604514,226.1710691823899 599.3142434332224,166.94591194968555 646,196 C 692.6857565667776,225.05408805031445 743.940658527562,342.3874213836478 799,386 C 854.059341472438,429.6125786163522 912.9231224565297,399.50440251572326 961,357 C 1009.0768775434703,314.49559748427674 1046.366851646319,259.5949685534591 1100,230 C 1153.633148353681,200.4050314465409 1223.6094709581946,196.11572327044024 1283,212 C 1342.3905290418054,227.88427672955976 1391.1952645209026,263.9421383647799 1440,300 C 1440,300 1440,600 1440,600 Z" stroke="none" stroke-width="0" fill="#edf2f4" fill-opacity="1" class="transition-all duration-300 ease-in-out delay-150 path-0"></path></svg>